<mxfile host="65bd71144e">
    <diagram id="FdFCppq6Der4e5SaIO5y" name="Page-1">
        <mxGraphModel dx="277" dy="742" grid="1" gridSize="10" guides="1" tooltips="1" connect="1" arrows="1" fold="1" page="1" pageScale="1" pageWidth="827" pageHeight="1169" math="0" shadow="0">
            <root>
                <mxCell id="0"/>
                <mxCell id="1" parent="0"/>
                <mxCell id="4" style="edgeStyle=none;html=1;entryX=0.5;entryY=0;entryDx=0;entryDy=0;" parent="1" source="2" target="3" edge="1">
                    <mxGeometry relative="1" as="geometry"/>
                </mxCell>
                <mxCell id="2" value="SDL主线程（入口main函数）" style="rounded=0;whiteSpace=wrap;html=1;fillColor=#6a00ff;fontColor=#ffffff;strokeColor=#3700CC;" parent="1" vertex="1">
                    <mxGeometry x="310" y="30" width="120" height="30" as="geometry"/>
                </mxCell>
                <mxCell id="8" style="edgeStyle=none;html=1;entryX=0.5;entryY=0;entryDx=0;entryDy=0;" parent="1" source="3" target="5" edge="1">
                    <mxGeometry relative="1" as="geometry"/>
                </mxCell>
                <mxCell id="3" value="创建SDL上下文" style="rounded=1;whiteSpace=wrap;html=1;fillColor=#008a00;fontColor=#ffffff;strokeColor=#005700;" parent="1" vertex="1">
                    <mxGeometry x="310" y="90" width="120" height="20" as="geometry"/>
                </mxCell>
                <mxCell id="13" style="edgeStyle=none;html=1;entryX=1;entryY=0.5;entryDx=0;entryDy=0;" parent="1" source="5" target="12" edge="1">
                    <mxGeometry relative="1" as="geometry"/>
                </mxCell>
                <mxCell id="5" value="&lt;div style=&quot;color: rgb(204, 204, 204); font-family: Menlo, Monaco, &amp;quot;Courier New&amp;quot;, monospace; font-size: 10.8px; line-height: 16px;&quot;&gt;&lt;span style=&quot;color: rgb(156, 220, 254);&quot;&gt;is&lt;/span&gt; &lt;span style=&quot;color: rgb(212, 212, 212);&quot;&gt;=&lt;/span&gt; &lt;span style=&quot;color: rgb(220, 220, 170);&quot;&gt;stream_open&lt;/span&gt;(&lt;span style=&quot;color: rgb(156, 220, 254);&quot;&gt;input_filename&lt;/span&gt;, &lt;span style=&quot;color: rgb(156, 220, 254);&quot;&gt;file_iformat&lt;/span&gt;)创建解复用线程&lt;/div&gt;" style="rounded=1;whiteSpace=wrap;html=1;" parent="1" vertex="1">
                    <mxGeometry x="270" y="140" width="200" height="60" as="geometry"/>
                </mxCell>
                <mxCell id="16" style="edgeStyle=none;html=1;entryX=0.5;entryY=0;entryDx=0;entryDy=0;" parent="1" source="12" target="15" edge="1">
                    <mxGeometry relative="1" as="geometry"/>
                </mxCell>
                <mxCell id="12" value="初始化VideoState结构体（3个FrameQueue和对应的PacketQueue，三个时钟还有音量等其它参数）" style="rounded=1;whiteSpace=wrap;html=1;fillColor=#008a00;fontColor=#ffffff;strokeColor=#005700;" parent="1" vertex="1">
                    <mxGeometry x="80" y="122.5" width="130" height="95" as="geometry"/>
                </mxCell>
                <mxCell id="19" style="edgeStyle=none;html=1;entryX=0.5;entryY=0;entryDx=0;entryDy=0;dashed=1;" parent="1" source="15" target="18" edge="1">
                    <mxGeometry relative="1" as="geometry"/>
                </mxCell>
                <mxCell id="20" value="create" style="edgeLabel;html=1;align=center;verticalAlign=middle;resizable=0;points=[];" parent="19" vertex="1" connectable="0">
                    <mxGeometry x="-0.2686" y="2" relative="1" as="geometry">
                        <mxPoint x="-2" as="offset"/>
                    </mxGeometry>
                </mxCell>
                <mxCell id="22" style="edgeStyle=none;html=1;entryX=0;entryY=0.5;entryDx=0;entryDy=0;fontColor=none;" parent="1" source="15" target="21" edge="1">
                    <mxGeometry relative="1" as="geometry"/>
                </mxCell>
                <mxCell id="23" value="&lt;div style=&quot;color: rgb(204, 204, 204); background-color: rgb(31, 31, 31); font-family: Menlo, Monaco, &amp;quot;Courier New&amp;quot;, monospace; font-size: 10.8px; line-height: 16px;&quot;&gt;&lt;span style=&quot;color: #c586c0;&quot;&gt;return&lt;/span&gt; &lt;span style=&quot;color: #9cdcfe;&quot;&gt;is&lt;/span&gt;&lt;/div&gt;" style="edgeLabel;html=1;align=center;verticalAlign=middle;resizable=0;points=[];fontColor=none;" parent="22" vertex="1" connectable="0">
                    <mxGeometry x="0.4847" y="1" relative="1" as="geometry">
                        <mxPoint x="-20" y="-14" as="offset"/>
                    </mxGeometry>
                </mxCell>
                <mxCell id="15" value="&lt;div style=&quot;color: rgb(204, 204, 204); background-color: rgb(31, 31, 31); font-family: Menlo, Monaco, &amp;quot;Courier New&amp;quot;, monospace; font-size: 10.8px; line-height: 16px;&quot;&gt;&lt;span style=&quot;color: #9cdcfe;&quot;&gt;is&lt;/span&gt;-&amp;gt;&lt;span style=&quot;color: #9cdcfe;&quot;&gt;read_tid&lt;/span&gt;     &lt;span style=&quot;color: #d4d4d4;&quot;&gt;=&lt;/span&gt; &lt;span style=&quot;color: #dcdcaa;&quot;&gt;SDL_CreateThread&lt;/span&gt;(&lt;span style=&quot;color: #dcdcaa;&quot;&gt;read_thread&lt;/span&gt;, &lt;span style=&quot;color: #ce9178;&quot;&gt;&quot;read_thread&quot;&lt;/span&gt;, &lt;span style=&quot;color: #9cdcfe;&quot;&gt;is&lt;/span&gt;);&lt;/div&gt;" style="rounded=1;whiteSpace=wrap;html=1;labelBackgroundColor=none;" parent="1" vertex="1">
                    <mxGeometry x="37.5" y="270" width="215" height="60" as="geometry"/>
                </mxCell>
                <mxCell id="27" style="edgeStyle=none;html=1;entryX=0.5;entryY=0;entryDx=0;entryDy=0;fontColor=none;" parent="1" source="18" target="26" edge="1">
                    <mxGeometry relative="1" as="geometry"/>
                </mxCell>
                <mxCell id="18" value="解复用线程(read_thread)" style="rounded=0;whiteSpace=wrap;html=1;labelBackgroundColor=none;fillColor=#6a00ff;fontColor=#ffffff;strokeColor=#3700CC;" parent="1" vertex="1">
                    <mxGeometry x="85" y="380" width="120" height="30" as="geometry"/>
                </mxCell>
                <mxCell id="118" style="edgeStyle=none;html=1;exitX=0.5;exitY=1;exitDx=0;exitDy=0;entryX=0.5;entryY=0;entryDx=0;entryDy=0;fontSize=8;fontColor=#CCCCCC;" edge="1" parent="1" source="21" target="117">
                    <mxGeometry relative="1" as="geometry"/>
                </mxCell>
                <mxCell id="21" value="&lt;div style=&quot;font-family: Menlo, Monaco, &amp;quot;Courier New&amp;quot;, monospace; font-size: 10.8px; line-height: 16px;&quot;&gt;&lt;div style=&quot;color: rgb(204, 204, 204); background-color: rgb(31, 31, 31); font-size: 9.6px; line-height: 14px;&quot;&gt;&lt;span style=&quot;color: #dcdcaa;&quot;&gt;event_loop&lt;/span&gt;(&lt;span style=&quot;color: #9cdcfe;&quot;&gt;is&lt;/span&gt;);进入SDL窗口主循环&lt;/div&gt;&lt;/div&gt;" style="rounded=1;whiteSpace=wrap;html=1;" parent="1" vertex="1">
                    <mxGeometry x="340" y="285" width="130" height="30" as="geometry"/>
                </mxCell>
                <mxCell id="29" style="edgeStyle=none;html=1;entryX=0.5;entryY=0;entryDx=0;entryDy=0;fontColor=none;" parent="1" source="26" target="28" edge="1">
                    <mxGeometry relative="1" as="geometry"/>
                </mxCell>
                <mxCell id="26" value="&lt;div style=&quot;color: rgb(204, 204, 204); font-family: Menlo, Monaco, &amp;quot;Courier New&amp;quot;, monospace; font-size: 10.8px; line-height: 16px;&quot;&gt;&lt;span style=&quot;color: rgb(220, 220, 170);&quot;&gt;avformat_open_input标准流程初始化&lt;/span&gt;&lt;span style=&quot;font-size: 10.8px; color: rgb(78, 201, 176);&quot;&gt;AVFormatContext&lt;/span&gt;&lt;span style=&quot;background-color: rgb(31, 31, 31); font-size: 10.8px;&quot;&gt; &lt;/span&gt;&lt;span style=&quot;font-size: 10.8px; color: rgb(212, 212, 212);&quot;&gt;*&lt;/span&gt;&lt;span style=&quot;font-size: 10.8px; color: rgb(156, 220, 254);&quot;&gt;ic&lt;/span&gt;&lt;/div&gt;" style="rounded=1;whiteSpace=wrap;html=1;" parent="1" vertex="1">
                    <mxGeometry x="40" y="450" width="210" height="50" as="geometry"/>
                </mxCell>
                <mxCell id="34" style="edgeStyle=none;html=1;entryX=0.5;entryY=0;entryDx=0;entryDy=0;fontColor=#FFFFFF;" parent="1" source="28" target="33" edge="1">
                    <mxGeometry relative="1" as="geometry"/>
                </mxCell>
                <mxCell id="28" value="&lt;div style=&quot;font-family: Menlo, Monaco, &amp;quot;Courier New&amp;quot;, monospace; font-size: 10.8px; line-height: 16px;&quot;&gt;&lt;div style=&quot;&quot;&gt;&lt;span style=&quot;color: rgb(156, 220, 254);&quot;&gt;st_index&lt;/span&gt;&lt;font style=&quot;&quot; color=&quot;#cccccc&quot;&gt;[&lt;/font&gt;&lt;font style=&quot;&quot; color=&quot;#4fc1ff&quot;&gt;AVMEDIA_TYPE_XXX&lt;/font&gt;&lt;font style=&quot;&quot; color=&quot;#cccccc&quot;&gt;] &lt;/font&gt;&lt;span style=&quot;color: rgb(212, 212, 212);&quot;&gt;=&lt;/span&gt;&lt;/div&gt;&lt;div style=&quot;&quot;&gt;&lt;span style=&quot;color: rgb(204, 204, 204);&quot;&gt;            &lt;span style=&quot;color: #dcdcaa;&quot;&gt;av_find_best_stream&lt;/span&gt;(&lt;/span&gt;&lt;font style=&quot;&quot; color=&quot;#9cdcfe&quot;&gt;...&lt;/font&gt;&lt;span style=&quot;color: rgb(204, 204, 204); font-size: 10.8px;&quot;&gt;)实现解复用，得到的stream索引用数组维护&lt;/span&gt;&lt;/div&gt;&lt;/div&gt;" style="rounded=0;whiteSpace=wrap;html=1;labelBackgroundColor=none;" parent="1" vertex="1">
                    <mxGeometry x="42.5" y="540" width="205" height="60" as="geometry"/>
                </mxCell>
                <mxCell id="75" style="edgeStyle=none;html=1;entryX=0.5;entryY=0;entryDx=0;entryDy=0;fontColor=#cccccc;" edge="1" parent="1" source="33" target="74">
                    <mxGeometry relative="1" as="geometry"/>
                </mxCell>
                <mxCell id="109" style="edgeStyle=none;html=1;fontColor=#cccccc;entryX=0;entryY=0.5;entryDx=0;entryDy=0;" edge="1" parent="1" source="33" target="111">
                    <mxGeometry relative="1" as="geometry">
                        <mxPoint x="280" y="655" as="targetPoint"/>
                    </mxGeometry>
                </mxCell>
                <mxCell id="110" value="创建完毕" style="edgeLabel;html=1;align=center;verticalAlign=middle;resizable=0;points=[];fontColor=#cccccc;" vertex="1" connectable="0" parent="109">
                    <mxGeometry x="0.4924" y="4" relative="1" as="geometry">
                        <mxPoint x="-41" y="4" as="offset"/>
                    </mxGeometry>
                </mxCell>
                <mxCell id="33" value="创建解码线程" style="rounded=1;whiteSpace=wrap;html=1;fillColor=#008a00;fontColor=#ffffff;strokeColor=#005700;" parent="1" vertex="1">
                    <mxGeometry x="80" y="640" width="130" height="30" as="geometry"/>
                </mxCell>
                <mxCell id="54" style="edgeStyle=none;html=1;entryX=0.5;entryY=0;entryDx=0;entryDy=0;" edge="1" parent="1" source="40" target="53">
                    <mxGeometry relative="1" as="geometry"/>
                </mxCell>
                <mxCell id="40" value="Video解码线程(video_thread)" style="rounded=0;whiteSpace=wrap;html=1;labelBackgroundColor=none;fillColor=#6a00ff;fontColor=#ffffff;strokeColor=#3700CC;" parent="1" vertex="1">
                    <mxGeometry x="85.5" y="865" width="120" height="30" as="geometry"/>
                </mxCell>
                <mxCell id="64" style="edgeStyle=none;html=1;entryX=0.5;entryY=0;entryDx=0;entryDy=0;" edge="1" parent="1" source="41" target="62">
                    <mxGeometry relative="1" as="geometry"/>
                </mxCell>
                <mxCell id="41" value="Audio解码线程(audio_thread)" style="rounded=0;whiteSpace=wrap;html=1;labelBackgroundColor=none;fillColor=#6a00ff;fontColor=#ffffff;strokeColor=#3700CC;" parent="1" vertex="1">
                    <mxGeometry x="330" y="850" width="120" height="30" as="geometry"/>
                </mxCell>
                <mxCell id="56" style="edgeStyle=none;html=1;entryX=0.5;entryY=0;entryDx=0;entryDy=0;" edge="1" parent="1" source="53" target="55">
                    <mxGeometry relative="1" as="geometry"/>
                </mxCell>
                <mxCell id="53" value="&lt;div style=&quot;color: rgb(204, 204, 204); background-color: rgb(31, 31, 31); font-family: Menlo, Monaco, &amp;quot;Courier New&amp;quot;, monospace; font-size: 10.8px; line-height: 16px;&quot;&gt;&lt;span style=&quot;color: #9cdcfe;&quot;&gt;ret&lt;/span&gt; &lt;span style=&quot;color: #d4d4d4;&quot;&gt;=&lt;/span&gt; &lt;span style=&quot;color: #dcdcaa;&quot;&gt;get_video_frame&lt;/span&gt;(&lt;span style=&quot;color: #9cdcfe;&quot;&gt;is&lt;/span&gt;, &lt;span style=&quot;color: #9cdcfe;&quot;&gt;frame&lt;/span&gt;)获取一帧（内部调用&lt;span style=&quot;color: rgb(220, 220, 170); font-size: 9.6px;&quot;&gt;decoder_decode_frame&lt;/span&gt;&lt;span style=&quot;font-size: 10.8px;&quot;&gt;，同时还有别的操作，实现下文详述）&lt;/span&gt;&lt;/div&gt;" style="rounded=1;whiteSpace=wrap;html=1;" vertex="1" parent="1">
                    <mxGeometry x="48" y="915" width="195" height="80" as="geometry"/>
                </mxCell>
                <mxCell id="58" style="edgeStyle=none;html=1;entryX=0.5;entryY=0;entryDx=0;entryDy=0;" edge="1" parent="1" source="55" target="57">
                    <mxGeometry relative="1" as="geometry"/>
                </mxCell>
                <mxCell id="55" value="帧参数处理（计算duration，秒pts，序列号等）" style="rounded=1;whiteSpace=wrap;html=1;fillColor=#008a00;fontColor=#ffffff;strokeColor=#005700;" vertex="1" parent="1">
                    <mxGeometry x="85.5" y="1015" width="120" height="50" as="geometry"/>
                </mxCell>
                <mxCell id="61" style="edgeStyle=none;html=1;" edge="1" parent="1" source="57">
                    <mxGeometry relative="1" as="geometry">
                        <mxPoint x="145.5" y="905" as="targetPoint"/>
                        <Array as="points">
                            <mxPoint x="145.5" y="1125"/>
                            <mxPoint x="145.5" y="1155"/>
                            <mxPoint x="210.5" y="1155"/>
                            <mxPoint x="260.5" y="1155"/>
                            <mxPoint x="260.5" y="1015"/>
                            <mxPoint x="260.5" y="905"/>
                        </Array>
                    </mxGeometry>
                </mxCell>
                <mxCell id="57" value="&lt;div style=&quot;background-color: rgb(31, 31, 31); font-family: Menlo, Monaco, &amp;quot;Courier New&amp;quot;, monospace; font-size: 10.8px; line-height: 16px;&quot;&gt;&lt;div style=&quot;font-size: 10.8px; line-height: 16px;&quot;&gt;&lt;span style=&quot;color: rgb(156, 220, 254);&quot;&gt;ret&lt;/span&gt; &lt;span style=&quot;color: rgb(212, 212, 212);&quot;&gt;=&lt;/span&gt; &lt;span style=&quot;color: rgb(220, 220, 170);&quot;&gt;queue_picture&lt;/span&gt;&lt;font color=&quot;#cccccc&quot;&gt;(&lt;/font&gt;&lt;font color=&quot;#9cdcfe&quot;&gt;...&lt;/font&gt;&lt;font color=&quot;#cccccc&quot;&gt;)将帧放入&lt;/font&gt;&lt;span style=&quot;font-size: 9.6px; color: rgb(156, 220, 254);&quot;&gt;is&lt;/span&gt;&lt;span style=&quot;color: rgb(204, 204, 204); font-size: 9.6px;&quot;&gt;-&amp;gt;&lt;/span&gt;&lt;span style=&quot;font-size: 9.6px; color: rgb(156, 220, 254);&quot;&gt;pictq&lt;/span&gt;&lt;span style=&quot;font-size: 9.6px;&quot;&gt;&lt;font color=&quot;#cccccc&quot;&gt;（内部实现调用&lt;/font&gt;&lt;/span&gt;&lt;span style=&quot;color: rgb(220, 220, 170); font-size: 9.6px;&quot;&gt;frame_queue_push&lt;/span&gt;&lt;span style=&quot;font-size: 9.6px;&quot;&gt;&lt;font color=&quot;#cccccc&quot;&gt;）&lt;/font&gt;&lt;/span&gt;&lt;/div&gt;&lt;/div&gt;" style="rounded=1;whiteSpace=wrap;html=1;" vertex="1" parent="1">
                    <mxGeometry x="48" y="1085" width="192.5" height="50" as="geometry"/>
                </mxCell>
                <mxCell id="66" style="edgeStyle=none;html=1;entryX=0.5;entryY=0;entryDx=0;entryDy=0;fontColor=#cccccc;" edge="1" parent="1" source="62" target="65">
                    <mxGeometry relative="1" as="geometry"/>
                </mxCell>
                <mxCell id="62" value="&lt;div style=&quot;color: rgb(204, 204, 204); background-color: rgb(31, 31, 31); font-family: Menlo, Monaco, &amp;quot;Courier New&amp;quot;, monospace; font-size: 9.6px; line-height: 14px;&quot;&gt;&lt;span style=&quot;color: #9cdcfe;&quot;&gt;got_frame&lt;/span&gt; &lt;span style=&quot;color: #d4d4d4;&quot;&gt;=&lt;/span&gt; &lt;span style=&quot;color: #dcdcaa;&quot;&gt;decoder_decode_frame&lt;/span&gt;(&lt;span style=&quot;color: #d4d4d4;&quot;&gt;&amp;amp;&lt;/span&gt;&lt;span style=&quot;color: #9cdcfe;&quot;&gt;is&lt;/span&gt;-&amp;gt;&lt;span style=&quot;color: #9cdcfe;&quot;&gt;auddec&lt;/span&gt;, &lt;span style=&quot;color: #9cdcfe;&quot;&gt;frame&lt;/span&gt;, &lt;span style=&quot;color: #569cd6;&quot;&gt;NULL&lt;/span&gt;)获取一帧采样数据&lt;/div&gt;" style="rounded=1;whiteSpace=wrap;html=1;" vertex="1" parent="1">
                    <mxGeometry x="315" y="905" width="150" height="70" as="geometry"/>
                </mxCell>
                <mxCell id="68" style="edgeStyle=none;html=1;exitX=0.5;exitY=1;exitDx=0;exitDy=0;entryX=0.5;entryY=0;entryDx=0;entryDy=0;fontColor=#cccccc;" edge="1" parent="1" source="65" target="67">
                    <mxGeometry relative="1" as="geometry"/>
                </mxCell>
                <mxCell id="65" value="帧参数处理（计算duration，秒pts，序列号等）" style="rounded=1;whiteSpace=wrap;html=1;fillColor=#008a00;fontColor=#ffffff;strokeColor=#005700;" vertex="1" parent="1">
                    <mxGeometry x="330" y="1000" width="120" height="50" as="geometry"/>
                </mxCell>
                <mxCell id="69" style="edgeStyle=none;html=1;fontColor=#cccccc;" edge="1" parent="1" source="67">
                    <mxGeometry relative="1" as="geometry">
                        <mxPoint x="390" y="890" as="targetPoint"/>
                        <Array as="points">
                            <mxPoint x="390" y="1140"/>
                            <mxPoint x="450" y="1140"/>
                            <mxPoint x="500" y="1140"/>
                            <mxPoint x="500" y="1080"/>
                            <mxPoint x="500" y="980"/>
                            <mxPoint x="500" y="940"/>
                            <mxPoint x="500" y="890"/>
                            <mxPoint x="490" y="890"/>
                        </Array>
                    </mxGeometry>
                </mxCell>
                <mxCell id="67" value="&lt;div style=&quot;background-color: rgb(31, 31, 31); font-family: Menlo, Monaco, &amp;quot;Courier New&amp;quot;, monospace; line-height: 16px;&quot;&gt;&lt;div style=&quot;line-height: 16px;&quot;&gt;&lt;span style=&quot;font-size: 9.6px; color: rgb(220, 220, 170);&quot;&gt;frame_queue_push&lt;/span&gt;&lt;span style=&quot;font-size: 9.6px; color: rgb(204, 204, 204);&quot;&gt;(&lt;/span&gt;&lt;span style=&quot;font-size: 9.6px; color: rgb(212, 212, 212);&quot;&gt;&amp;amp;&lt;/span&gt;&lt;span style=&quot;font-size: 9.6px; color: rgb(156, 220, 254);&quot;&gt;is&lt;/span&gt;&lt;span style=&quot;font-size: 9.6px; color: rgb(204, 204, 204);&quot;&gt;-&amp;gt;&lt;/span&gt;&lt;span style=&quot;font-size: 9.6px; color: rgb(156, 220, 254);&quot;&gt;sampq&lt;/span&gt;&lt;span style=&quot;font-size: 9.6px; color: rgb(204, 204, 204);&quot;&gt;)&lt;/span&gt;&lt;font style=&quot;font-size: 10.8px;&quot; color=&quot;#cccccc&quot;&gt;将帧放入&lt;/font&gt;&lt;font size=&quot;1&quot; color=&quot;#9cdcfe&quot; style=&quot;&quot;&gt;is-&amp;gt;sampq&lt;/font&gt;&lt;/div&gt;&lt;/div&gt;" style="rounded=1;whiteSpace=wrap;html=1;" vertex="1" parent="1">
                    <mxGeometry x="293.75" y="1070" width="192.5" height="50" as="geometry"/>
                </mxCell>
                <mxCell id="77" style="edgeStyle=none;html=1;exitX=0.5;exitY=1;exitDx=0;exitDy=0;entryX=0.5;entryY=0;entryDx=0;entryDy=0;fontColor=#cccccc;" edge="1" parent="1" source="74" target="76">
                    <mxGeometry relative="1" as="geometry"/>
                </mxCell>
                <mxCell id="74" value="&lt;div style=&quot;color: rgb(204, 204, 204); background-color: rgb(31, 31, 31); font-family: Menlo, Monaco, &amp;quot;Courier New&amp;quot;, monospace; font-weight: normal; font-size: 9.6px; line-height: 14px;&quot;&gt;&lt;div&gt;&lt;span style=&quot;color: #dcdcaa;&quot;&gt;stream_component_open(...)&lt;/span&gt;&lt;/div&gt;&lt;/div&gt;" style="rounded=1;whiteSpace=wrap;html=1;fontColor=#cccccc;" vertex="1" parent="1">
                    <mxGeometry x="57.5" y="690" width="175" height="20" as="geometry"/>
                </mxCell>
                <mxCell id="78" style="edgeStyle=none;html=1;exitX=0.5;exitY=1;exitDx=0;exitDy=0;entryX=0.5;entryY=0;entryDx=0;entryDy=0;fontColor=#cccccc;" edge="1" parent="1" source="76" target="104">
                    <mxGeometry relative="1" as="geometry"/>
                </mxCell>
                <mxCell id="79" value="false" style="edgeLabel;html=1;align=center;verticalAlign=middle;resizable=0;points=[];fontColor=#cccccc;" vertex="1" connectable="0" parent="78">
                    <mxGeometry y="2" relative="1" as="geometry">
                        <mxPoint x="-2" y="-10" as="offset"/>
                    </mxGeometry>
                </mxCell>
                <mxCell id="82" style="edgeStyle=none;html=1;exitX=1;exitY=0.5;exitDx=0;exitDy=0;entryX=0;entryY=0.5;entryDx=0;entryDy=0;fontColor=#cccccc;" edge="1" parent="1" source="76" target="80">
                    <mxGeometry relative="1" as="geometry"/>
                </mxCell>
                <mxCell id="85" value="true" style="edgeLabel;html=1;align=center;verticalAlign=middle;resizable=0;points=[];fontColor=#cccccc;" vertex="1" connectable="0" parent="82">
                    <mxGeometry x="-0.06" y="-3" relative="1" as="geometry">
                        <mxPoint y="-3" as="offset"/>
                    </mxGeometry>
                </mxCell>
                <mxCell id="76" value="&lt;div style=&quot;font-family: Menlo, Monaco, &amp;quot;Courier New&amp;quot;, monospace; font-size: 9.6px; line-height: 14px;&quot;&gt;&lt;span style=&quot;color: rgb(156, 220, 254);&quot;&gt;avctx&lt;/span&gt;-&amp;gt;&lt;span style=&quot;color: rgb(156, 220, 254);&quot;&gt;codec_type ==&amp;nbsp;&lt;/span&gt;&lt;span style=&quot;color: rgb(79, 193, 255); font-size: 9.6px;&quot;&gt;AVMEDIA_TYPE_AUDIO&lt;/span&gt;&lt;/div&gt;" style="rhombus;whiteSpace=wrap;html=1;fontColor=#ffffff;fillColor=#76608a;strokeColor=#432D57;" vertex="1" parent="1">
                    <mxGeometry x="15" y="730" width="260" height="40" as="geometry"/>
                </mxCell>
                <mxCell id="87" style="edgeStyle=none;html=1;fontColor=#cccccc;" edge="1" parent="1" source="80" target="88">
                    <mxGeometry relative="1" as="geometry">
                        <mxPoint x="530" y="750.0000000000002" as="targetPoint"/>
                    </mxGeometry>
                </mxCell>
                <mxCell id="80" value="创建音频播放线程" style="rounded=1;whiteSpace=wrap;html=1;fillColor=#008a00;fontColor=#ffffff;strokeColor=#005700;" vertex="1" parent="1">
                    <mxGeometry x="325" y="735" width="130" height="30" as="geometry"/>
                </mxCell>
                <mxCell id="94" style="edgeStyle=none;html=1;exitX=0.5;exitY=1;exitDx=0;exitDy=0;entryX=0.5;entryY=0;entryDx=0;entryDy=0;fontColor=#cccccc;" edge="1" parent="1" source="86" target="93">
                    <mxGeometry relative="1" as="geometry"/>
                </mxCell>
                <mxCell id="86" value="Audio播放线程(回调函数&lt;span style=&quot;color: rgb(220, 220, 170); font-family: Menlo, Monaco, &amp;quot;Courier New&amp;quot;, monospace; font-size: 9.6px;&quot;&gt;sdl_audio_callback)&lt;/span&gt;" style="rounded=0;whiteSpace=wrap;html=1;labelBackgroundColor=none;fillColor=#6a00ff;fontColor=#ffffff;strokeColor=#3700CC;" vertex="1" parent="1">
                    <mxGeometry x="580" y="800" width="120" height="50" as="geometry"/>
                </mxCell>
                <mxCell id="89" style="edgeStyle=none;html=1;entryX=0.5;entryY=0;entryDx=0;entryDy=0;fontColor=#cccccc;dashed=1;" edge="1" parent="1" source="88" target="86">
                    <mxGeometry relative="1" as="geometry"/>
                </mxCell>
                <mxCell id="91" style="edgeStyle=none;html=1;exitX=0.25;exitY=1;exitDx=0;exitDy=0;entryX=0.5;entryY=0;entryDx=0;entryDy=0;fontColor=#cccccc;" edge="1" parent="1" source="88" target="106">
                    <mxGeometry relative="1" as="geometry">
                        <Array as="points">
                            <mxPoint x="603" y="780"/>
                            <mxPoint x="390" y="780"/>
                        </Array>
                    </mxGeometry>
                </mxCell>
                <mxCell id="92" value="&lt;span style=&quot;font-family: Menlo, Monaco, &amp;quot;Courier New&amp;quot;, monospace; font-size: 9.6px; color: rgb(197, 134, 192);&quot;&gt;return&lt;/span&gt;&lt;span style=&quot;font-family: Menlo, Monaco, &amp;quot;Courier New&amp;quot;, monospace; font-size: 9.6px; background-color: rgb(31, 31, 31);&quot;&gt;&amp;nbsp;&lt;/span&gt;&lt;span style=&quot;font-family: Menlo, Monaco, &amp;quot;Courier New&amp;quot;, monospace; font-size: 9.6px; color: rgb(156, 220, 254);&quot;&gt;spec&lt;/span&gt;&lt;span style=&quot;font-family: Menlo, Monaco, &amp;quot;Courier New&amp;quot;, monospace; font-size: 9.6px; background-color: rgb(31, 31, 31);&quot;&gt;.&lt;/span&gt;&lt;span style=&quot;font-family: Menlo, Monaco, &amp;quot;Courier New&amp;quot;, monospace; font-size: 9.6px; color: rgb(156, 220, 254);&quot;&gt;size&lt;/span&gt;&lt;span style=&quot;font-family: Menlo, Monaco, &amp;quot;Courier New&amp;quot;, monospace; font-size: 9.6px; background-color: rgb(31, 31, 31);&quot;&gt;;&lt;/span&gt;" style="edgeLabel;html=1;align=center;verticalAlign=middle;resizable=0;points=[];fontColor=#cccccc;" vertex="1" connectable="0" parent="91">
                    <mxGeometry x="0.1316" y="1" relative="1" as="geometry">
                        <mxPoint x="28" y="-1" as="offset"/>
                    </mxGeometry>
                </mxCell>
                <mxCell id="88" value="&lt;div style=&quot;background-color: rgb(31, 31, 31); font-family: Menlo, Monaco, &amp;quot;Courier New&amp;quot;, monospace; font-size: 9.6px; line-height: 14px;&quot;&gt;&lt;span style=&quot;color: #9cdcfe;&quot;&gt;audio_dev&lt;/span&gt; &lt;span style=&quot;color: #d4d4d4;&quot;&gt;=&lt;/span&gt; &lt;span style=&quot;color: #dcdcaa;&quot;&gt;SDL_OpenAudioDevice&lt;/span&gt;(&lt;font color=&quot;#569cd6&quot;&gt;...&lt;/font&gt;)&lt;/div&gt;" style="rounded=1;whiteSpace=wrap;html=1;labelBackgroundColor=none;fontColor=#cccccc;" vertex="1" parent="1">
                    <mxGeometry x="565" y="730" width="150" height="35" as="geometry"/>
                </mxCell>
                <mxCell id="96" style="edgeStyle=none;html=1;exitX=0.5;exitY=1;exitDx=0;exitDy=0;entryX=0.5;entryY=0;entryDx=0;entryDy=0;fontColor=#cccccc;" edge="1" parent="1" source="93">
                    <mxGeometry relative="1" as="geometry">
                        <mxPoint x="640" y="930" as="targetPoint"/>
                    </mxGeometry>
                </mxCell>
                <mxCell id="93" value="&lt;div style=&quot;font-family: Menlo, Monaco, &amp;quot;Courier New&amp;quot;, monospace; font-size: 9.6px; line-height: 14px;&quot;&gt;&lt;div style=&quot;font-size: 9.6px; line-height: 14px;&quot;&gt;&lt;span style=&quot;color: rgb(156, 220, 254);&quot;&gt;audio_size&lt;/span&gt; &lt;span style=&quot;color: rgb(212, 212, 212);&quot;&gt;=&lt;/span&gt; &lt;span style=&quot;color: rgb(220, 220, 170);&quot;&gt;audio_decode_frame&lt;/span&gt;(&lt;span style=&quot;color: rgb(156, 220, 254);&quot;&gt;is&lt;/span&gt;);&lt;/div&gt;&lt;/div&gt;" style="rounded=1;whiteSpace=wrap;html=1;labelBackgroundColor=none;fontColor=#cccccc;" vertex="1" parent="1">
                    <mxGeometry x="565" y="880" width="150" height="30" as="geometry"/>
                </mxCell>
                <mxCell id="98" style="edgeStyle=none;html=1;exitX=0.5;exitY=1;exitDx=0;exitDy=0;entryX=0.5;entryY=0;entryDx=0;entryDy=0;fontColor=#cccccc;" edge="1" parent="1">
                    <mxGeometry relative="1" as="geometry">
                        <mxPoint x="640" y="980" as="sourcePoint"/>
                        <mxPoint x="640" y="1000" as="targetPoint"/>
                    </mxGeometry>
                </mxCell>
                <mxCell id="95" value="&lt;div style=&quot;font-family: Menlo, Monaco, &amp;quot;Courier New&amp;quot;, monospace; font-size: 9.6px; line-height: 14px;&quot;&gt;&lt;div style=&quot;font-size: 9.6px; line-height: 14px;&quot;&gt;&lt;div style=&quot;background-color: rgb(31, 31, 31); font-size: 9.6px; line-height: 14px;&quot;&gt;&lt;span style=&quot;color: #9cdcfe;&quot;&gt;af&lt;/span&gt; &lt;span style=&quot;color: #d4d4d4;&quot;&gt;=&lt;/span&gt; &lt;span style=&quot;color: #dcdcaa;&quot;&gt;frame_queue_peek_readable&lt;/span&gt;(&lt;span style=&quot;color: #d4d4d4;&quot;&gt;&amp;amp;&lt;/span&gt;&lt;span style=&quot;color: #9cdcfe;&quot;&gt;is&lt;/span&gt;-&amp;gt;&lt;span style=&quot;color: #9cdcfe;&quot;&gt;sampq&lt;/span&gt;)&lt;/div&gt;&lt;/div&gt;&lt;/div&gt;" style="rounded=1;whiteSpace=wrap;html=1;labelBackgroundColor=none;fontColor=#cccccc;" vertex="1" parent="1">
                    <mxGeometry x="547.5" y="930" width="185" height="50" as="geometry"/>
                </mxCell>
                <mxCell id="100" style="edgeStyle=none;html=1;entryX=0.5;entryY=0;entryDx=0;entryDy=0;fontColor=#cccccc;" edge="1" parent="1" target="99">
                    <mxGeometry relative="1" as="geometry">
                        <mxPoint x="640" y="1040" as="sourcePoint"/>
                    </mxGeometry>
                </mxCell>
                <mxCell id="101" value="audio_decode_frame得到的数据放在&lt;span style=&quot;font-family: Menlo, Monaco, &amp;quot;Courier New&amp;quot;, monospace; font-size: 9.6px; color: rgb(156, 220, 254);&quot;&gt;is&lt;/span&gt;&lt;span style=&quot;background-color: rgb(31, 31, 31); font-family: Menlo, Monaco, &amp;quot;Courier New&amp;quot;, monospace; font-size: 9.6px;&quot;&gt;-&amp;gt;&lt;/span&gt;&lt;span style=&quot;font-family: Menlo, Monaco, &amp;quot;Courier New&amp;quot;, monospace; font-size: 9.6px; color: rgb(156, 220, 254);&quot;&gt;audio_buf里面&lt;br&gt;&lt;/span&gt;" style="edgeLabel;html=1;align=center;verticalAlign=middle;resizable=0;points=[];fontColor=#cccccc;" vertex="1" connectable="0" parent="100">
                    <mxGeometry x="0.0667" y="3" relative="1" as="geometry">
                        <mxPoint x="7" y="-1" as="offset"/>
                    </mxGeometry>
                </mxCell>
                <mxCell id="97" value="&lt;div style=&quot;font-family: Menlo, Monaco, &amp;quot;Courier New&amp;quot;, monospace; font-size: 9.6px; line-height: 14px;&quot;&gt;&lt;div style=&quot;font-size: 9.6px; line-height: 14px;&quot;&gt;&lt;div style=&quot;background-color: rgb(31, 31, 31); font-size: 9.6px; line-height: 14px;&quot;&gt;&lt;div style=&quot;font-size: 9.6px; line-height: 14px;&quot;&gt;&lt;span style=&quot;color: #9cdcfe;&quot;&gt;len2&lt;/span&gt; &lt;span style=&quot;color: #d4d4d4;&quot;&gt;=&lt;/span&gt; &lt;span style=&quot;color: #dcdcaa;&quot;&gt;swr_convert&lt;/span&gt;(...)对af中解码得到的音频数据进行重采样&lt;/div&gt;&lt;/div&gt;&lt;/div&gt;&lt;/div&gt;" style="rounded=1;whiteSpace=wrap;html=1;labelBackgroundColor=none;fontColor=#cccccc;" vertex="1" parent="1">
                    <mxGeometry x="543.75" y="1000" width="192.5" height="40" as="geometry"/>
                </mxCell>
                <mxCell id="102" style="edgeStyle=none;html=1;fontColor=#cccccc;exitX=0.5;exitY=1;exitDx=0;exitDy=0;" edge="1" parent="1" source="99">
                    <mxGeometry relative="1" as="geometry">
                        <mxPoint x="640" y="860" as="targetPoint"/>
                        <Array as="points">
                            <mxPoint x="640" y="1160"/>
                            <mxPoint x="800" y="1160"/>
                            <mxPoint x="800" y="860"/>
                        </Array>
                    </mxGeometry>
                </mxCell>
                <mxCell id="99" value="&lt;div style=&quot;background-color: rgb(31, 31, 31); font-family: Menlo, Monaco, &amp;quot;Courier New&amp;quot;, monospace; font-size: 9.6px; line-height: 14px;&quot;&gt;&lt;span style=&quot;color: #569cd6;&quot;&gt;memcpy&lt;/span&gt;(&lt;span style=&quot;color: #9cdcfe;&quot;&gt;stream&lt;/span&gt;, (&lt;span style=&quot;color: #4ec9b0;&quot;&gt;uint8_t&lt;/span&gt; &lt;span style=&quot;color: #d4d4d4;&quot;&gt;*&lt;/span&gt;)&lt;span style=&quot;color: #9cdcfe;&quot;&gt;is&lt;/span&gt;-&amp;gt;&lt;span style=&quot;color: #9cdcfe;&quot;&gt;audio_buf&lt;/span&gt; &lt;span style=&quot;color: #d4d4d4;&quot;&gt;+&lt;/span&gt; &lt;span style=&quot;color: #9cdcfe;&quot;&gt;is&lt;/span&gt;-&amp;gt;&lt;span style=&quot;color: #9cdcfe;&quot;&gt;audio_buf_index&lt;/span&gt;, &lt;span style=&quot;color: #9cdcfe;&quot;&gt;len1&lt;/span&gt;)把重采样后的数据拷到声卡，供SDL播放&lt;/div&gt;" style="rounded=1;whiteSpace=wrap;html=1;labelBackgroundColor=none;fontColor=#cccccc;" vertex="1" parent="1">
                    <mxGeometry x="550" y="1070" width="180" height="60" as="geometry"/>
                </mxCell>
                <mxCell id="105" style="edgeStyle=none;html=1;exitX=0.5;exitY=1;exitDx=0;exitDy=0;fontColor=#cccccc;entryX=0.5;entryY=0;entryDx=0;entryDy=0;dashed=1;" edge="1" parent="1" source="104" target="40">
                    <mxGeometry relative="1" as="geometry">
                        <mxPoint x="140" y="870" as="targetPoint"/>
                    </mxGeometry>
                </mxCell>
                <mxCell id="104" value="&lt;div style=&quot;background-color: rgb(31, 31, 31); font-family: Menlo, Monaco, &amp;quot;Courier New&amp;quot;, monospace; font-size: 9.6px; line-height: 14px;&quot;&gt;&lt;span style=&quot;color: #dcdcaa;&quot;&gt;decoder_init(...)&lt;/span&gt;&lt;/div&gt;&lt;div style=&quot;background-color: rgb(31, 31, 31); font-family: Menlo, Monaco, &amp;quot;Courier New&amp;quot;, monospace; font-size: 9.6px; line-height: 14px;&quot;&gt;&lt;div style=&quot;font-size: 9.6px; line-height: 14px;&quot;&gt;&lt;span style=&quot;color: #dcdcaa;&quot;&gt;decoder_start(...)&lt;/span&gt;&lt;/div&gt;&lt;/div&gt;" style="rounded=1;whiteSpace=wrap;html=1;labelBackgroundColor=none;fontColor=#cccccc;" vertex="1" parent="1">
                    <mxGeometry x="85" y="805" width="120" height="35" as="geometry"/>
                </mxCell>
                <mxCell id="107" style="edgeStyle=none;html=1;exitX=0.5;exitY=1;exitDx=0;exitDy=0;entryX=0.5;entryY=0;entryDx=0;entryDy=0;fontColor=#cccccc;dashed=1;" edge="1" parent="1" source="106" target="41">
                    <mxGeometry relative="1" as="geometry"/>
                </mxCell>
                <mxCell id="106" value="&lt;div style=&quot;background-color: rgb(31, 31, 31); font-family: Menlo, Monaco, &amp;quot;Courier New&amp;quot;, monospace; font-size: 9.6px; line-height: 14px;&quot;&gt;&lt;span style=&quot;color: #dcdcaa;&quot;&gt;decoder_init(...)&lt;/span&gt;&lt;/div&gt;&lt;div style=&quot;background-color: rgb(31, 31, 31); font-family: Menlo, Monaco, &amp;quot;Courier New&amp;quot;, monospace; font-size: 9.6px; line-height: 14px;&quot;&gt;&lt;div style=&quot;font-size: 9.6px; line-height: 14px;&quot;&gt;&lt;span style=&quot;color: #dcdcaa;&quot;&gt;decoder_start(...)&lt;/span&gt;&lt;/div&gt;&lt;/div&gt;" style="rounded=1;whiteSpace=wrap;html=1;labelBackgroundColor=none;fontColor=#cccccc;" vertex="1" parent="1">
                    <mxGeometry x="330" y="800" width="120" height="35" as="geometry"/>
                </mxCell>
                <mxCell id="113" style="edgeStyle=none;html=1;exitX=1;exitY=0.5;exitDx=0;exitDy=0;entryX=0;entryY=0.5;entryDx=0;entryDy=0;fontColor=#CCCCCC;" edge="1" parent="1" source="111" target="112">
                    <mxGeometry relative="1" as="geometry"/>
                </mxCell>
                <mxCell id="111" value="处理&lt;span style=&quot;font-family: Menlo, Monaco, &amp;quot;Courier New&amp;quot;, monospace; font-size: 9.6px;&quot;&gt;seek_req，&lt;/span&gt;&lt;span style=&quot;font-family: Menlo, Monaco, &amp;quot;Courier New&amp;quot;, monospace; font-size: 9.6px;&quot;&gt;queue_attachments_req，pause,PacketQueue满等情况&lt;/span&gt;" style="rounded=1;whiteSpace=wrap;html=1;labelBackgroundColor=none;fontColor=#ffffff;fillColor=#60a917;strokeColor=#2D7600;" vertex="1" parent="1">
                    <mxGeometry x="315" y="625" width="150" height="60" as="geometry"/>
                </mxCell>
                <mxCell id="115" style="edgeStyle=none;html=1;exitX=1;exitY=0.5;exitDx=0;exitDy=0;entryX=0;entryY=0.5;entryDx=0;entryDy=0;fontSize=8;fontColor=#CCCCCC;" edge="1" parent="1" source="112" target="114">
                    <mxGeometry relative="1" as="geometry"/>
                </mxCell>
                <mxCell id="112" value="&lt;div style=&quot;font-family: Menlo, Monaco, &amp;quot;Courier New&amp;quot;, monospace; font-size: 9.6px; line-height: 14px;&quot;&gt;&lt;span style=&quot;color: rgb(220, 220, 170);&quot;&gt;av_read_frame(...)从输入读一个packet&lt;/span&gt;&lt;/div&gt;" style="rounded=1;whiteSpace=wrap;html=1;labelBackgroundColor=none;fontColor=#ffffff;fillColor=#0050ef;strokeColor=#001DBC;" vertex="1" parent="1">
                    <mxGeometry x="500" y="632.5" width="110" height="45" as="geometry"/>
                </mxCell>
                <mxCell id="116" style="edgeStyle=none;html=1;fontSize=8;fontColor=#CCCCCC;exitX=0.5;exitY=0;exitDx=0;exitDy=0;" edge="1" parent="1" source="114">
                    <mxGeometry relative="1" as="geometry">
                        <mxPoint x="290" y="655" as="targetPoint"/>
                        <Array as="points">
                            <mxPoint x="700" y="600"/>
                            <mxPoint x="290" y="600"/>
                        </Array>
                    </mxGeometry>
                </mxCell>
                <mxCell id="114" value="&lt;font style=&quot;font-size: 8px;&quot;&gt;处理pkt相关参数后，根据&lt;br&gt;&lt;span style=&quot;font-family: Menlo, Monaco, &amp;quot;Courier New&amp;quot;, monospace; color: rgb(156, 220, 254);&quot;&gt;pkt&lt;/span&gt;&lt;span style=&quot;background-color: rgb(31, 31, 31); font-family: Menlo, Monaco, &amp;quot;Courier New&amp;quot;, monospace;&quot;&gt;-&amp;gt;&lt;/span&gt;&lt;span style=&quot;font-family: Menlo, Monaco, &amp;quot;Courier New&amp;quot;, monospace; color: rgb(156, 220, 254);&quot;&gt;stream_index&lt;/span&gt;&lt;span style=&quot;font-family: Menlo, Monaco, &amp;quot;Courier New&amp;quot;, monospace;&quot;&gt;，调用&lt;/span&gt;&lt;span style=&quot;background-color: rgb(31, 31, 31); color: rgb(220, 220, 170); font-family: Menlo, Monaco, &amp;quot;Courier New&amp;quot;, monospace;&quot;&gt;packet_queue_put(...)放入对应的PacketQueue中&lt;/span&gt;&lt;/font&gt;" style="rounded=1;whiteSpace=wrap;html=1;labelBackgroundColor=none;fontColor=#CCCCCC;" vertex="1" parent="1">
                    <mxGeometry x="640" y="625" width="120" height="60" as="geometry"/>
                </mxCell>
                <mxCell id="120" style="edgeStyle=none;html=1;exitX=0.5;exitY=1;exitDx=0;exitDy=0;entryX=0.5;entryY=0;entryDx=0;entryDy=0;fontSize=8;fontColor=#CCCCCC;" edge="1" parent="1" source="117" target="119">
                    <mxGeometry relative="1" as="geometry"/>
                </mxCell>
                <mxCell id="117" value="&lt;div style=&quot;font-family: Menlo, Monaco, &amp;quot;Courier New&amp;quot;, monospace; font-size: 10.8px; line-height: 16px;&quot;&gt;&lt;div style=&quot;color: rgb(204, 204, 204); background-color: rgb(31, 31, 31); font-size: 9.6px; line-height: 14px;&quot;&gt;&lt;div style=&quot;font-size: 9.6px; line-height: 14px;&quot;&gt;&lt;span style=&quot;color: #dcdcaa;&quot;&gt;refresh_loop_wait_event&lt;/span&gt;(&lt;span style=&quot;color: #9cdcfe;&quot;&gt;cur_stream&lt;/span&gt;, &lt;span style=&quot;color: #d4d4d4;&quot;&gt;&amp;amp;&lt;/span&gt;&lt;span style=&quot;color: #9cdcfe;&quot;&gt;event&lt;/span&gt;);视音频播放与同步实现，原理详见下文&lt;/div&gt;&lt;/div&gt;&lt;/div&gt;" style="rounded=1;whiteSpace=wrap;html=1;" vertex="1" parent="1">
                    <mxGeometry x="295" y="350" width="220" height="30" as="geometry"/>
                </mxCell>
                <mxCell id="121" style="edgeStyle=none;html=1;fontSize=8;fontColor=#CCCCCC;exitX=0.5;exitY=1;exitDx=0;exitDy=0;" edge="1" parent="1" source="119">
                    <mxGeometry relative="1" as="geometry">
                        <mxPoint x="405" y="330" as="targetPoint"/>
                        <Array as="points">
                            <mxPoint x="405" y="470"/>
                            <mxPoint x="340" y="470"/>
                            <mxPoint x="280" y="470"/>
                            <mxPoint x="280" y="330"/>
                        </Array>
                    </mxGeometry>
                </mxCell>
                <mxCell id="119" value="&lt;div style=&quot;color: rgb(204, 204, 204); background-color: rgb(31, 31, 31); font-family: Menlo, Monaco, &amp;quot;Courier New&amp;quot;, monospace; font-weight: normal; font-size: 9.6px; line-height: 14px;&quot;&gt;&lt;div&gt;&lt;span style=&quot;color: #c586c0;&quot;&gt;switch&lt;/span&gt;&lt;span style=&quot;color: #cccccc;&quot;&gt; (&lt;/span&gt;&lt;span style=&quot;color: #9cdcfe;&quot;&gt;event&lt;/span&gt;&lt;span style=&quot;color: #cccccc;&quot;&gt;.&lt;/span&gt;&lt;span style=&quot;color: #9cdcfe;&quot;&gt;type&lt;/span&gt;&lt;span style=&quot;color: #cccccc;&quot;&gt;)处理SDL消息&lt;/span&gt;&lt;/div&gt;&lt;/div&gt;" style="rounded=1;whiteSpace=wrap;html=1;labelBackgroundColor=none;fontSize=8;fontColor=#CCCCCC;" vertex="1" parent="1">
                    <mxGeometry x="344.5" y="410" width="121" height="40" as="geometry"/>
                </mxCell>
            </root>
        </mxGraphModel>
    </diagram>
</mxfile>